# xmcd CD database file
#
# Track frame offsets:
#	150
#	12148
#	25300
#	39889
#	50710
#	63149
#	76200
#	90038
#	100435
#	113434
#	121207
#	133571
#	146105
#	158435
#	169556
#	183068
#	192570
#	206306
#	216479
#	226064
#	236131
#	244696
#	259865
#	272451
#
# Disc length: 3800 seconds
#
# Revision: 0
# Processed by: cddbd v1.5.1PL0 Copyright (c) Steve Scherf et al.
# Submitted via: CDex 1.51
#
DISCID=310ed618
DTITLE=Various Artist - Bara Country Hits
DYEAR=2005
DGENRE=Country
TTITLE0=Rose Garden - Lynn Anderson
TTITLE1=Detroit City - Bobby Bare
TTITLE2=Take me Home Country Roads - John Denver
TTITLE3=King of the Road - Roger Miller
TTITLE4=Only You - Jerry Le Lewis
TTITLE5=Ruby Don't Take Your Love to Town - Kenny Rogers
TTITLE6=Right or Wrong - Wanda Jackson
TTITLE7=Six Days on the Road - Dave Dudley
TTITLE8=If Not for You - Olivia Newton-John
TTITLE9=Dang Me - Roger Miller
TTITLE10=Green Green Grass of Home - Bobby Bare
TTITLE11=Reuben James - Kenny Rogers
TTITLE12=Stand By Your Man - Lynn Anderson
TTITLE13=Some Day I'll Sober up - Eddie Bond
TTITLE14=Annie's Song - John Denver
TTITLE15=Dear Hearts and Gentle People - Jim Reeves
TTITLE16=A Good Year for the Roses - George Jones
TTITLE17=Help me Make it Through the Night - Bobby Bare
TTITLE18=Snowbird - Lynn Anderson
TTITLE19=Gentle on My Mind - Glen Campbell (live)
TTITLE20=Love's Gonna Live Here - Waylon Jennings
TTITLE21=For the Good Times - Bobby Bare
TTITLE22=By the Time I Get to Phoenix - Glen Campbell
TTITLE23=Folsom Prison Blues - Johhny Cash
EXTD=YEAR: 2005
EXTT0=
EXTT1=
EXTT2=
EXTT3=
EXTT4=
EXTT5=
EXTT6=
EXTT7=
EXTT8=
EXTT9=
EXTT10=
EXTT11=
EXTT12=
EXTT13=
EXTT14=
EXTT15=
EXTT16=
EXTT17=
EXTT18=
EXTT19=
EXTT20=
EXTT21=
EXTT22=
EXTT23=
PLAYORDER=
